<?xml version="1.0" encoding="utf-8"?>
<!-- Generator: Adobe Illustrator 22.1.0, SVG Export Plug-In . SVG Version: 6.00 Build 0)  -->
<svg version="1.1" id="Capa_1" xmlns="http://www.w3.org/2000/svg" xmlns:xlink="http://www.w3.org/1999/xlink" x="0px" y="0px"
	 viewBox="0 0 200 100" style="enable-background:new 0 0 200 100;" xml:space="preserve">
<style type="text/css">
	.st0{fill:#FFFFFF;}
</style>
<g>
	<g>
		<path class="st0" d="M192.4,4.5H45.9H30.1H7.6C6.2,4.5,5,5.7,5,7.1v16.5c0,1.5,1.2,2.6,2.6,2.6h19.8v68.6c0,1.5,1.2,2.6,2.6,2.6
			h15.8c1.5,0,2.6-1.2,2.6-2.6V26.2h143.8c1.5,0,2.6-1.2,2.6-2.6V7.1C195,5.7,193.8,4.5,192.4,4.5z"/>
	</g>
	<g>
		<path class="st0" d="M71.6,28.9H55.8c-1.5,0-2.6,1.2-2.6,2.6v63.3c0,1.5,1.2,2.6,2.6,2.6h15.8c1.5,0,2.6-1.2,2.6-2.6V31.5
			C74.3,30.1,73.1,28.9,71.6,28.9z"/>
	</g>
	<g>
		<path class="st0" d="M131.7,28.9h-15.8c-1.5,0-2.6,1.2-2.6,2.6V57c0,1.4-1.8,2-2.7,0.9c0,0-10.5-23.1-10.5-26.4
			c0-1.5-1.2-2.6-2.6-2.6H81.5c-1.5,0-2.6,1.2-2.6,2.6v63.3c0,1.5,1.2,2.6,2.6,2.6h15.8c1.5,0,2.6-1.2,2.6-2.6V67.5
			c0-1,1.3-1.4,1.9-0.6c0,0,11.3,23.8,11.3,28c0,1.5,1.2,2.6,2.6,2.6h15.8c1.5,0,2.6-1.2,2.6-2.6V31.5
			C134.3,30.1,133.1,28.9,131.7,28.9z"/>
	</g>
	<g>
		<path class="st0" d="M189.7,28.9h-15.8c-1.5,0-2.7,1.2-2.7,2.7v19c0,2.6-2.1,4.7-4.7,4.7h-1.1c-2.6,0-4.7-2.1-4.7-4.7v-19
			c0-1.5-1.2-2.6-2.6-2.6h-15.8c-1.5,0-2.6,1.2-2.6,2.6v21.6c0,8.4,4.3,15.4,12.7,15.4h3.1h2.6h10.7c1.4,0,2.5,1.1,2.5,2.5v8.6
			c0,2.6-2.1,4.7-4.7,4.7h-1.1c-2.6,0-4.7-2.1-4.7-4.7V78c0-2.4-1.9-4.3-4.3-4.3h-13.5c-1.8,0-3.3,1.5-3.3,3.3v8
			c0,6.8,2.9,12.4,9.8,12.4h6.1h2.6h15.8h4.2c7.9,0,14.3-6.4,14.3-14.3V31.6C192.4,30.1,191.2,28.9,189.7,28.9z"/>
	</g>
</g>
</svg>
